HIERARCHY
ROOT Hips
{
	OFFSET 0.0000 0.0000 0.0000
	CHANNELS 6 Xposition Yposition Zposition Zrotation Xrotation Yrotation
	JOINT Ab
	{
		OFFSET -0.0000 8.0846 -0.0000
		CHANNELS 3 Zrotation Xrotation Yrotation
		JOINT Chest
		{
			OFFSET -0.0000 25.0068 -0.0000
			CHANNELS 3 Zrotation Xrotation Yrotation
			JOINT Neck
			{
				OFFSET -0.0000 25.0068 0.0000
				CHANNELS 3 Zrotation Xrotation Yrotation
				JOINT Head
				{
					OFFSET -0.0000 10.7556 0.0000
					CHANNELS 3 Zrotation Xrotation Yrotation
					End Site
					{
						OFFSET -0.0000 16.6222 0.0000
					}
				}
			}
			JOINT LeftCollar
			{
				OFFSET -0.0000 25.0068 0.0000
				CHANNELS 3 Zrotation Xrotation Yrotation
				JOINT LeftShoulder
				{
					OFFSET 19.5556 -0.0000 0.0000
					CHANNELS 3 Zrotation Xrotation Yrotation
					JOINT LeftElbow
					{
						OFFSET 27.1828 0.0000 0.0000
						CHANNELS 3 Zrotation Xrotation Yrotation
						JOINT LeftWrist
						{
							OFFSET 23.3157 0.0000 0.0000
							CHANNELS 3 Zrotation Xrotation Yrotation
							End Site
							{
								OFFSET 0.0000 -14.6667 0.0000
							}
						}
					}
				}
			}
			JOINT RightCollar
			{
				OFFSET -0.0000 25.0068 0.0000
				CHANNELS 3 Zrotation Xrotation Yrotation
				JOINT RightShoulder
				{
					OFFSET -19.5556 0.0000 0.0000
					CHANNELS 3 Zrotation Xrotation Yrotation
					JOINT RightElbow
					{
						OFFSET -27.1828 0.0000 0.0000
						CHANNELS 3 Zrotation Xrotation Yrotation
						JOINT RightWrist
						{
							OFFSET -23.3157 0.0000 0.0000
							CHANNELS 3 Zrotation Xrotation Yrotation
							End Site
							{
								OFFSET -0.0000 -14.6667 0.0000
							}
						}
					}
				}
			}
		}
	}
	JOINT LeftHip
	{
		OFFSET 11.7333 0.0000 0.0000
		CHANNELS 3 Zrotation Xrotation Yrotation
		JOINT LeftKnee
		{
			OFFSET -0.0000 -40.8688 0.0000
			CHANNELS 3 Zrotation Xrotation Yrotation
			JOINT LeftAnkle
			{
				OFFSET -0.0000 -44.4337 0.0000
				CHANNELS 3 Zrotation Xrotation Yrotation
				End Site
				{
					OFFSET -0.0000 -4.8889 16.6222
				}
			}
		}
	}
	JOINT RightHip
	{
		OFFSET -11.7333 0.0000 0.0000
		CHANNELS 3 Zrotation Xrotation Yrotation
		JOINT RightKnee
		{
			OFFSET -0.0000 -40.8688 0.0000
			CHANNELS 3 Zrotation Xrotation Yrotation
			JOINT RightAnkle
			{
				OFFSET -0.0000 -44.4337 0.0000
				CHANNELS 3 Zrotation Xrotation Yrotation
				End Site
				{
					OFFSET -0.0000 -4.8889 16.6222
				}
			}
		}
	}
}
MOTION
Frames: 16
Frame Time: 0.010000
-7.0150 87.8805 39.6339 3.7605 359.9318 170.3986 358.5260 2.3372 357.4795 2.6431 12.3491 357.1635 10.0954 336.0875 6.3961 357.1121 2.8027 4.3170 339.1611 358.2816 9.2122 316.9050 44.1684 336.6952 28.5649 351.5879 328.1391 81.9322 357.7655 357.3345 21.0928 359.0853 355.0048 63.1519 36.9409 5.6450 338.4447 354.3650 29.1206 280.2157 354.2403 21.9908 359.3884 1.0783 353.8005 357.3150 8.6825 359.7882 3.7934 352.8927 24.6688 4.3434 334.8584 3.1710 0.9178 32.3087 1.6860 354.5183 350.7769 342.6612 
-7.0632 87.8274 39.4601 3.4998 359.5673 170.5198 358.4736 2.1423 357.4595 2.5460 12.3314 357.1553 10.1130 335.9989 6.3406 357.1960 2.6811 4.2444 339.1780 358.3126 9.1233 316.8907 44.1163 336.7292 28.4319 351.7268 328.0952 81.9281 357.7907 357.2579 21.0693 359.0530 354.9790 63.2734 36.8738 5.5125 338.4053 354.3205 29.1559 280.3165 354.2572 21.9940 359.1216 0.6829 353.8063 357.3431 8.8689 359.6729 3.7557 352.6797 24.6936 4.1787 334.2021 3.0320 0.7528 30.8236 1.7567 356.2677 350.9662 343.1860 
-6.9998 87.7774 39.1026 3.5479 359.8497 170.5553 358.5067 2.4048 357.4997 2.5407 12.5418 357.1895 10.1389 335.9404 6.3086 357.2769 2.5685 4.1978 339.1871 358.3341 9.0860 316.7673 43.8980 336.8198 28.1839 351.8062 327.9995 82.0581 357.8278 356.8841 21.0444 359.0551 354.9910 63.3613 36.8194 5.3653 338.5374 354.3616 29.0255 280.2998 353.9346 22.0777 359.1595 1.2423 354.1140 357.3385 8.8928 358.6877 3.7752 352.4205 25.3079 4.3292 334.5256 3.2055 0.6958 29.1283 1.0693 0.2310 350.8115 334.4315 
-6.9880 87.7201 38.8254 3.4283 359.8386 170.6856 358.4982 2.4998 357.4866 2.4869 12.5712 357.1795 10.1549 335.8756 6.2144 357.2828 2.4739 4.0860 339.1700 358.3514 8.9309 316.5731 43.6585 337.0500 27.9200 351.8794 327.8763 81.8726 357.9463 356.3963 21.0549 359.0823 354.9174 63.4402 36.6603 5.2236 338.6699 354.4737 28.9098 280.2089 353.6494 22.2336 359.0491 1.3663 354.0347 357.2886 8.8909 359.0914 4.3305 352.3673 25.0030 4.2330 334.4357 3.3211 0.7278 27.5203 1.8211 356.1407 351.6802 342.9584 
-7.0092 87.6556 38.6139 3.1731 359.5544 170.8612 358.4436 2.3580 357.4651 2.3812 12.5703 357.1703 10.1966 335.7959 6.1251 357.2984 2.4007 3.9776 339.2728 358.4271 8.3734 315.1825 41.9093 338.4340 26.8634 352.1699 326.7982 82.2019 358.3354 354.9942 21.0596 359.0332 354.8405 63.5198 36.6303 5.0962 338.6575 354.4278 28.8966 280.2426 353.6250 22.1534 358.7923 1.0981 353.9927 357.3170 9.0087 359.2695 4.3575 352.1989 24.7276 4.0213 333.9284 3.2643 0.6782 26.1650 1.8774 356.1746 351.8409 342.8587 
-6.9377 87.5981 38.2433 3.1784 359.7996 170.9296 358.4377 2.5606 357.5212 2.3858 12.7983 357.2188 10.1813 335.7437 6.0780 357.4471 2.3025 3.9305 339.3453 358.4906 8.2354 314.5989 41.1405 338.8192 26.2744 352.2343 326.5256 82.0808 358.4091 353.9433 21.0254 359.0562 354.8498 63.6297 36.4998 4.9517 338.8037 354.4691 28.9388 280.3578 354.0271 22.2829 358.8064 1.6173 354.2504 357.2952 8.9607 359.0489 4.2229 351.9685 24.6162 4.0839 334.2373 3.6077 0.7027 24.6882 1.5684 356.5278 352.0102 343.2438 
-6.9006 87.5377 37.9401 3.0173 359.7229 171.0262 358.3766 2.5087 357.5453 2.3519 12.9215 357.2423 10.1467 335.6265 5.9713 357.4941 2.2840 3.8134 339.3734 358.5292 8.0200 314.1026 40.5159 339.2214 25.7748 352.2964 326.3327 82.0404 358.4934 353.0537 20.9985 359.0242 354.7883 63.7719 36.3432 4.7750 338.8515 354.4727 28.9106 280.3472 353.8984 22.5119 358.6638 1.7197 354.2767 357.2966 8.9516 358.9960 3.8674 351.5116 24.5239 3.9813 334.0697 3.6468 0.6517 23.4621 1.5165 355.4844 352.1647 343.4279 
-6.8462 87.4702 37.5697 2.9273 359.8621 171.1546 358.3408 2.6206 357.5702 2.3365 13.0862 357.2647 10.1496 335.6057 5.8875 357.5162 2.2094 3.7259 339.3577 358.5670 7.8517 313.6429 39.9608 339.6198 25.2937 352.3842 326.1930 82.1608 358.5759 352.3792 20.9785 359.0459 354.7748 63.9234 36.0725 4.5579 339.0575 354.5406 28.8357 280.2418 353.7631 22.7648 358.5639 2.1468 354.2762 357.2989 8.8313 358.9589 3.5419 351.2200 24.3560 3.8919 334.2592 3.9777 0.7116 22.1617 1.2211 355.1372 352.2033 343.5706 
-6.8048 87.4227 37.2586 2.7180 359.7597 171.2897 358.2208 2.5474 357.6114 2.3029 13.2008 357.3058 10.1781 335.5118 5.7971 357.5322 2.1207 3.6165 339.3474 358.6001 7.6787 313.2528 39.5383 339.9755 24.9547 352.4312 326.1265 82.0429 358.6936 351.7322 20.9907 359.0167 354.7116 63.9831 35.9370 4.4004 339.1186 354.5516 28.9377 280.4510 354.0290 23.0013 358.4019 2.1514 354.2138 357.2393 8.9495 358.9351 3.0413 350.8110 24.2803 3.7359 334.0829 4.1444 0.6968 21.1372 1.1875 355.2710 351.8781 343.4803 
-6.7391 87.3597 36.9020 2.6036 359.7825 171.4574 358.1589 2.5579 357.6523 2.3040 13.3688 357.3418 10.2034 335.4372 5.7014 357.5410 2.0254 3.5055 339.4258 358.6592 7.1586 311.9678 37.6358 341.1126 23.8314 352.7896 325.3473 82.2799 359.1051 350.3285 20.9573 358.9917 354.6051 64.0881 35.8019 4.2844 339.2029 354.6370 28.8028 280.6197 353.8451 23.3975 358.3533 2.4679 354.0512 357.1495 8.7989 358.7966 3.1094 350.6737 24.4232 3.6375 334.1536 4.7484 0.8411 20.0531 0.8833 355.3514 351.7733 343.2427 
-6.6634 87.3037 36.5843 2.5067 359.6626 171.6368 358.1474 2.5232 357.6604 2.3044 13.4198 357.3496 10.1733 335.3566 5.5926 357.6168 1.9603 3.3938 339.4317 358.6998 6.9418 311.3838 36.8875 341.6118 23.2025 352.9043 325.2502 82.4608 359.0061 349.3649 20.9385 358.9591 354.5366 64.1969 35.6063 4.0904 339.3214 354.6465 28.7431 280.9050 353.7324 23.8276 358.3136 2.5523 354.0725 357.1455 8.7765 358.7638 3.0811 350.6613 24.3037 3.6008 334.0173 4.9886 0.8006 19.2276 1.5265 355.4792 351.5393 342.6964 
-6.5805 87.2449 36.2221 2.4155 359.6389 171.8206 358.1165 2.5004 357.6776 2.3187 13.5753 357.3613 10.1867 335.2574 5.5145 357.6099 1.9129 3.3035 339.3836 358.7338 6.9052 311.1386 36.7208 341.7778 23.0000 352.8801 325.4271 82.2640 358.9615 349.0112 20.9274 359.0046 354.4778 64.2032 35.4140 4.0068 339.5753 354.7459 28.6768 281.1697 353.7985 24.1721 358.2683 2.7921 354.1189 357.1627 8.6991 358.7259 2.9208 350.5389 24.0748 3.5620 333.9775 5.2284 0.7665 18.5871 1.2274 355.2976 351.4795 342.8829 
-6.4882 87.1803 35.8273 2.3462 359.7242 172.0049 358.1045 2.5997 357.7089 2.3184 13.6807 357.3886 10.1772 335.2006 5.4148 357.6112 1.8548 3.1986 339.2641 358.7538 6.9409 311.1349 37.0704 341.8366 23.0889 352.7859 325.8185 82.1833 358.9454 349.0577 20.8866 358.9804 354.4499 64.3620 35.2854 3.7852 339.6000 354.7593 28.5900 281.3870 353.6048 24.4338 358.2380 3.1752 354.1395 357.1627 8.6069 358.7437 2.7804 350.2976 23.8262 3.5039 334.1028 5.4786 0.7994 17.9536 0.9613 355.3582 351.3996 342.9588 
-6.4238 87.1200 35.4565 2.1724 359.6460 172.4212 358.0648 2.5623 357.6290 2.3191 13.7587 357.3059 10.1652 335.0976 5.2589 357.5809 1.7852 3.0280 339.2164 358.7281 6.9294 311.1089 37.4484 341.8207 23.1380 352.8246 326.1971 82.1960 358.9048 349.1555 20.8475 358.9445 354.2678 64.4836 35.1368 3.6307 339.7266 354.7961 28.5619 281.4505 353.6588 24.7407 358.0927 3.2664 354.0724 357.2538 8.7473 358.5212 2.1416 350.2790 23.4985 3.2347 333.9990 5.3697 0.7971 17.5359 0.8857 355.5874 351.0470 343.1989 
-6.3383 87.0583 35.0825 2.0286 359.5100 172.7790 358.0472 2.4533 357.5707 2.3103 13.8581 357.2495 10.1418 334.9893 5.1760 357.6558 1.7673 2.9478 339.2114 358.7474 6.8643 310.6691 37.1047 342.2115 22.7668 353.0233 326.2736 82.2736 359.0159 348.7089 20.7953 358.9299 354.2459 64.6445 34.9333 3.3966 340.0249 354.8833 28.5981 281.0919 353.7395 25.4694 357.9980 3.3209 354.0238 357.3215 8.7870 358.4154 1.9659 350.0075 23.2558 3.0367 333.7992 5.0144 0.6922 17.3998 1.5291 355.8284 350.9817 342.9634 
-6.2231 87.0052 34.7109 1.9290 359.3690 173.0922 357.9951 2.3956 357.5501 2.3938 13.8663 357.2179 10.1185 334.9601 5.0890 357.6837 1.6965 2.8614 339.1815 358.7720 6.6789 309.9921 36.4043 342.9117 22.2723 353.2305 326.1354 82.4317 359.0661 347.9702 20.7475 358.9745 354.2434 64.7815 34.7268 3.1713 340.2226 354.9454 28.5429 281.4000 353.8440 25.7689 358.1032 3.4740 353.0750 356.9994 8.6052 358.9523 1.9138 349.8565 23.3363 2.9571 333.6056 4.9297 0.6298 17.4181 1.8146 356.4127 350.8188 342.9040 
